<svg width="1014" height="900" viewBox="0 0 1014 900" fill="none" xmlns="http://www.w3.org/2000/svg">
<g id="squares">
<rect id="Rectangle 22" opacity="0.111111" width="415.408" height="436.244" rx="82.0358" transform="matrix(0.00126209 0.999999 -1 0.000690268 750.05 178.684)" stroke="#E672BD" stroke-width="0.592481" stroke-linecap="round"/>
<rect id="Rectangle 22_2" opacity="0.222222" width="423.612" height="444.448" rx="82.0358" transform="matrix(0.00126209 0.999999 -1 0.000690268 749.148 184.415)" stroke="#DA6DC5" stroke-width="0.774782" stroke-linecap="round"/>
<rect id="Rectangle 22_3" opacity="0.333333" width="431.815" height="452.651" rx="82.0358" transform="matrix(0.00126209 0.999999 -1 0.000690268 748.245 190.145)" stroke="#CE69CE" stroke-width="0.957084" stroke-linecap="round"/>
<rect id="Rectangle 22_4" opacity="0.444444" width="440.019" height="460.855" rx="82.0358" transform="matrix(0.00126209 0.999999 -1 0.000690268 747.343 195.875)" stroke="#C265D6" stroke-width="1.13939" stroke-linecap="round"/>
<rect id="Rectangle 22_5" opacity="0.555556" width="448.222" height="469.058" rx="82.0358" transform="matrix(0.00126209 0.999999 -1 0.000690268 746.441 201.605)" stroke="#B660DE" stroke-width="1.32169" stroke-linecap="round"/>
<rect id="Rectangle 22_6" opacity="0.666667" width="456.426" height="477.262" rx="82.0358" transform="matrix(0.00126209 0.999999 -1 0.000690268 745.539 207.335)" stroke="#AA5CE6" stroke-width="1.50399" stroke-linecap="round"/>
<rect id="Rectangle 22_7" opacity="0.777778" width="464.63" height="485.465" rx="82.0358" transform="matrix(0.00126209 0.999999 -1 0.000690268 744.637 213.065)" stroke="#9E58EF" stroke-width="1.68629" stroke-linecap="round"/>
<rect id="Rectangle 22_8" opacity="0.888889" width="472.833" height="493.669" rx="82.0358" transform="matrix(0.00126209 0.999999 -1 0.000690268 743.734 218.796)" stroke="#9253F7" stroke-width="1.86859" stroke-linecap="round"/>
<rect id="Rectangle 22_9" width="481.037" height="501.873" rx="82.0358" transform="matrix(0.00126209 0.999999 -1 0.00069027 742.832 224.526)" stroke="#864FFF" stroke-width="2.05089" stroke-linecap="round"/>
</g>
</svg>
