<?xml version="1.0" standalone="no"?>
<!DOCTYPE svg PUBLIC "-//W3C//DTD SVG 20010904//EN"
 "http://www.w3.org/TR/2001/REC-SVG-20010904/DTD/svg10.dtd">
<svg version="1.0" xmlns="http://www.w3.org/2000/svg"
 width="700.000000pt" height="700.000000pt" viewBox="0 0 700.000000 700.000000"
 preserveAspectRatio="xMidYMid meet">
<metadata>
Created by potrace 1.14, written by Peter Selinger 2001-2017
</metadata>
<g transform="translate(0.000000,700.000000) scale(0.100000,-0.100000)"
fill="#000000" stroke="none">
<path d="M3278 6995 c-1 -1 -42 -5 -89 -9 -47 -4 -95 -8 -105 -10 -10 -2 -41
-7 -69 -10 -27 -4 -72 -11 -100 -16 -27 -5 -61 -12 -75 -14 -148 -27 -274 -61
-458 -122 -73 -24 -152 -52 -175 -63 -23 -10 -62 -27 -87 -37 -252 -106 -595
-312 -805 -485 -206 -170 -441 -405 -552 -554 -13 -17 -37 -48 -54 -70 -324
-416 -582 -1015 -663 -1540 -2 -16 -8 -50 -12 -75 -20 -131 -29 -272 -29 -495
1 -191 7 -339 19 -402 2 -10 7 -43 10 -74 4 -31 9 -67 11 -80 3 -13 7 -37 9
-54 24 -166 119 -493 210 -714 127 -311 348 -674 555 -915 82 -95 117 -132
221 -236 484 -484 1099 -813 1770 -950 80 -16 170 -32 200 -36 30 -3 66 -8 80
-10 179 -26 627 -25 838 2 176 22 522 97 617 134 17 7 37 13 46 15 96 19 625
261 679 310 9 8 20 15 24 15 4 0 39 21 79 47 321 207 606 463 862 774 47 57
235 323 235 333 0 3 18 34 41 68 59 92 210 404 263 545 109 291 186 625 214
933 14 153 4 692 -13 720 -2 3 -6 30 -9 60 -3 30 -8 64 -10 75 -2 11 -11 61
-20 110 -135 735 -556 1462 -1146 1977 -107 93 -424 328 -443 328 -3 0 -25 13
-49 29 -67 45 -300 165 -429 220 -227 97 -546 193 -746 225 -33 5 -116 19
-123 21 -3 1 -41 5 -85 10 -44 4 -89 10 -100 12 -25 4 -532 12 -537 8z"/>
</g>
</svg>
